<?xml version="1.0" encoding="utf-8"?>
<!-- Generator: Adobe Illustrator 16.2.1, SVG Export Plug-In . SVG Version: 6.00 Build 0)  -->
<!DOCTYPE svg PUBLIC "-//W3C//DTD SVG 1.1//EN" "http://www.w3.org/Graphics/SVG/1.1/DTD/svg11.dtd">
<svg version="1.1" id="Layer_1" xmlns="http://www.w3.org/2000/svg" xmlns:xlink="http://www.w3.org/1999/xlink" x="0px" y="0px"
	 width="320px" height="480px" viewBox="0 0 320 480" enable-background="new 0 0 320 480" xml:space="preserve">
<g id="Layer_3">
	<path fill="none" stroke="#000000" stroke-miterlimit="10" d="M102.5,108.75c-1.34,9.454,3.717,10.274-5.213,16.972
		c-5.9,4.425-14.512,8.754-19.954,13.778c-11.056,10.205-24.428,23.016-31,36.569c-12.062,24.877-18.2,58.991-11.778,86.819
		c5.94,25.74,30.653,52.765,48.434,71.435c4.708,4.943,11.344,9.677,17.302,11.636c2.67,2.726,8.447,1.919,11.257,4.923
		s-2.384,11.021-0.173,14.743c6.446,10.855,29.445,11,41.079,11c13.341,0,32.801,2.157,43.421-8.875
		c3.185-3.309,3.198-5.26,3.787-9.731c0.634-4.82,2.619-4.146,5.963-7.394c5.979-5.805,14.897-8.911,21.191-14.441
		c21.736-19.102,47.591-43.729,51.184-74.869c3.676-31.854,10.704-68.595-7.209-96.191c-8.459-13.031-20.063-22.542-32.08-32.413
		c-5.112-4.199-17.311-7.544-21.523-12.523c-5.301-6.264,9.746-12.255-6.859-14.469c-19.016-2.535-37.204-2.219-56.289-2.219
		C138.106,103.5,116.967,100.337,102.5,108.75z"/>
</g>
</svg>
