<?xml version="1.0" encoding="utf-8"?>
<!-- Generator: Adobe Illustrator 16.2.1, SVG Export Plug-In . SVG Version: 6.00 Build 0)  -->
<!DOCTYPE svg PUBLIC "-//W3C//DTD SVG 1.1//EN" "http://www.w3.org/Graphics/SVG/1.1/DTD/svg11.dtd">
<svg version="1.1" id="Layer_1" xmlns="http://www.w3.org/2000/svg" xmlns:xlink="http://www.w3.org/1999/xlink" x="0px" y="0px"
	 width="252.437px" height="280.204px" viewBox="0 0 252.437 280.204" enable-background="new 0 0 252.437 280.204"
	 xml:space="preserve">
<path fill="none" stroke="#000000" stroke-miterlimit="10" d="M68.549,9.758c0,0,3.333,7.333,2.667,9.333s-33,25.333-46,47.333
	s-15,29.333-15.667,33s-4,17.333-5,28.667s-2,21.666-1.333,29s5.333,17.667,9.333,23.334c4,5.666,14,19.333,22.333,28.666
	s31.177,33,36.422,38s6.245,5.667,6.578,8s0,8.999,0,11.333c1.667,2.667,18.334,8.666,27.667,10s28.333,2.666,36.667,0
	c9.333-2,19.666-7.333,23.333-11.333c0.666-4.333,0-9.334,1.666-10.667c1.668-1.333,25.334-18,31.334-25.333
	c8.666-6.333,29.666-26.666,39.666-42s13.668-30.333,12.668-56.667s-7.668-41.667-17.668-58.333s-35.334-41.333-47.666-52
	c3-13,2-6.667,1.666-10.333c-2.332-3.333-10.998-4-14.332-4.333s-49.667-5.667-77.334-2.333S71.216,8.425,68.549,9.758z"/>
</svg>
