<?xml version="1.0" encoding="utf-8"?>
<!-- Generator: Adobe Illustrator 16.2.1, SVG Export Plug-In . SVG Version: 6.00 Build 0)  -->
<!DOCTYPE svg PUBLIC "-//W3C//DTD SVG 1.1//EN" "http://www.w3.org/Graphics/SVG/1.1/DTD/svg11.dtd">
<svg version="1.1" id="Layer_1" xmlns="http://www.w3.org/2000/svg" xmlns:xlink="http://www.w3.org/1999/xlink" x="0px" y="0px"
	 width="320px" height="480px" viewBox="0 0 320 480" enable-background="new 0 0 320 480" xml:space="preserve">
<g id="Layer_3">
	<path fill="none" stroke="#000000" stroke-miterlimit="10" d="M102.5,108.75c-1.34,9.454,3.717,10.274-5.213,16.972
		c-5.9,4.425-11.47,8.754-16.912,13.778c-11.056,10.205-20.822,23.016-27.394,36.569c-12.062,24.877-22.82,56.964-16.398,84.792
		c5.94,25.74,32.761,50.656,50.542,69.326c4.708,4.943,9.597,9.685,14.375,14.562c2.67,2.726,5.444,5.324,8.06,8.12
		c2.81,3.004-0.396,9.032,1.815,12.755c6.446,10.855,29.445,11,41.079,11c13.341,0,32.801,2.157,43.421-8.875
		c3.185-3.309,3.198-5.26,3.787-9.731c0.634-4.82,2.619-4.146,5.963-7.394c5.979-5.805,13.525-10.284,19.819-15.814
		c21.736-19.102,53.032-42.355,56.625-73.496c3.676-31.854,0.996-62.957-16.917-90.553c-8.459-13.031-20.047-26.617-32.063-36.488
		c-5.112-4.199-11.688-9.107-15.901-14.086c-5.301-6.264,9.746-12.255-6.859-14.469c-19.016-2.535-37.204-2.219-56.289-2.219
		C138.106,103.5,116.967,100.337,102.5,108.75z"/>
</g>
</svg>
