<?xml version="1.0" encoding="utf-8"?>
<!-- Generator: Adobe Illustrator 16.2.1, SVG Export Plug-In . SVG Version: 6.00 Build 0)  -->
<!DOCTYPE svg PUBLIC "-//W3C//DTD SVG 1.1//EN" "http://www.w3.org/Graphics/SVG/1.1/DTD/svg11.dtd">
<svg version="1.1" id="Layer_1" xmlns="http://www.w3.org/2000/svg" xmlns:xlink="http://www.w3.org/1999/xlink" x="0px" y="0px"
	 width="320px" height="480px" viewBox="0 0 320 480" enable-background="new 0 0 320 480" xml:space="preserve">
<g id="Layer_3">
	<path fill="none" stroke="#000000" stroke-miterlimit="10" d="M102.5,108.75c-1.34,9.454,3.717,10.274-5.213,16.972
		c-5.9,4.425-14.512,8.754-19.954,13.778c-11.056,10.205-17.78,23.016-24.352,36.569c-12.062,24.877-20.515,54.658-14.093,82.486
		c5.94,25.74,34.32,49.098,52.101,67.768c4.708,4.943,8.357,10.924,13.136,15.802c2.67,2.726,4.808,5.961,7.423,8.757
		c2.81,3.004-2.384,11.021-0.173,14.743c6.446,10.855,29.445,11,41.079,11c13.341,0,32.801,2.157,43.421-8.875
		c3.185-3.309,3.198-5.26,3.787-9.731c0.634-4.82,2.619-4.146,5.963-7.394c5.979-5.805,10.231-13.577,16.525-19.107
		c21.736-19.102,52.257-39.062,55.85-70.203c3.676-31.854,5.065-62.957-12.848-90.553c-8.459-13.031-20.047-22.557-32.063-32.428
		c-5.112-4.199-11.688-13.167-15.901-18.146c-5.301-6.264,9.746-12.255-6.859-14.469c-19.016-2.535-37.204-2.219-56.289-2.219
		C138.106,103.5,116.967,100.337,102.5,108.75z"/>
</g>
</svg>
