<?xml version="1.0" encoding="utf-8"?>
<!-- Generator: Adobe Illustrator 16.2.1, SVG Export Plug-In . SVG Version: 6.00 Build 0)  -->
<!DOCTYPE svg PUBLIC "-//W3C//DTD SVG 1.1//EN" "http://www.w3.org/Graphics/SVG/1.1/DTD/svg11.dtd">
<svg version="1.1" xmlns="http://www.w3.org/2000/svg" xmlns:xlink="http://www.w3.org/1999/xlink" x="0px" y="0px" width="40px"
	 height="49px" viewBox="0 0 40 49" enable-background="new 0 0 40 49" xml:space="preserve">
<g id="Layer_1">
</g>
<g id="Layer_2">
</g>
<g id="Layer_3">
	<path d="M22.289,18.525c-4.118,0-7.24,1.86-9.136,4.165c-0.046,0.218-0.126,0.521-0.263,0.959c-0.459,1.472-0.39,3.757-0.287,5.029
		c0.1-0.537,0.273-1.006,0.506-1.394c1.44-2.82,4.379-4.8,7.56-4.8c4.86,0,8.04,3.36,8.04,8.94c0,5.58-3.06,9.359-7.62,9.359
		c-5.48,0-8.414-4.674-8.573-11.023c-0.001-0.003-0.002-0.005-0.003-0.008c-0.5-1.147-0.047-4.983,0.194-6.729h-0.017
		c0.025-0.18,0.063-0.357,0.094-0.536c0.032-0.214,0.053-0.347,0.053-0.347s0.007,0,0.008,0c1.166-6.084,5.507-11.66,13.405-12.976
		c1.5-0.24,2.88-0.3,3.96-0.24V4.606c-0.96,0-2.28,0.06-3.84,0.3c-4.92,0.6-9.24,2.58-12.479,5.76c-3.84,3.84-6.6,9.899-6.6,17.579
		c0,10.14,5.459,16.62,13.799,16.62c8.1,0,12.959-6.6,12.959-13.74C34.049,23.505,29.189,18.525,22.289,18.525z"/>
</g>
<g id="Layer_4">
</g>
<g id="Layer_5">
</g>
<g id="Layer_6">
</g>
</svg>
