<?xml version="1.0" encoding="utf-8"?>
<!-- Generator: Adobe Illustrator 16.2.1, SVG Export Plug-In . SVG Version: 6.00 Build 0)  -->
<!DOCTYPE svg PUBLIC "-//W3C//DTD SVG 1.1//EN" "http://www.w3.org/Graphics/SVG/1.1/DTD/svg11.dtd">
<svg version="1.1" xmlns="http://www.w3.org/2000/svg" xmlns:xlink="http://www.w3.org/1999/xlink" x="0px" y="0px" width="40px"
	 height="49px" viewBox="0 0 40 49" enable-background="new 0 0 40 49" xml:space="preserve">
<g id="Layer_1">
	<g>
		<path d="M8.71,38.145c1.5,0.96,4.979,2.459,8.64,2.459c6.78,0,8.879-4.319,8.819-7.56c-0.06-5.459-4.979-7.8-10.08-7.8h-2.94
			v-3.959h2.94c3.84,0,8.7-1.98,8.7-6.6c0-3.12-1.98-5.879-6.84-5.879c-3.12,0-6.12,1.38-7.799,2.58l-1.38-3.84
			c2.04-1.5,6-3,10.199-3c7.68,0,11.16,4.56,11.16,9.299c0,4.02-2.4,7.44-7.2,9.18v0.12c4.8,0.96,8.7,4.56,8.7,10.02
			c0,6.24-4.86,11.7-14.219,11.7c-4.38,0-8.22-1.38-10.14-2.64L8.71,38.145z"/>
	</g>
</g>
<g id="Layer_2">
</g>
<g id="Layer_3">
</g>
<g id="Layer_4">
</g>
<g id="Layer_5">
</g>
<g id="Layer_6">
</g>
</svg>
