<?xml version="1.0" encoding="utf-8"?>
<!-- Generator: Adobe Illustrator 16.2.1, SVG Export Plug-In . SVG Version: 6.00 Build 0)  -->
<!DOCTYPE svg PUBLIC "-//W3C//DTD SVG 1.1//EN" "http://www.w3.org/Graphics/SVG/1.1/DTD/svg11.dtd">
<svg version="1.1" xmlns="http://www.w3.org/2000/svg" xmlns:xlink="http://www.w3.org/1999/xlink" x="0px" y="0px" width="40px"
	 height="49px" viewBox="0 0 40 49" enable-background="new 0 0 40 49" xml:space="preserve">
<g id="Layer_1">
	<g>
		<path d="M31.229,9.646H16.35l-1.5,10.02c0.9-0.12,1.74-0.24,3.18-0.24c3,0,6,0.66,8.4,2.1c3.06,1.74,5.58,5.1,5.58,10.02
			c0,7.62-6.06,13.32-14.52,13.32c-4.26,0-7.859-1.2-9.719-2.4l1.32-4.02c1.62,0.96,4.8,2.16,8.34,2.16
			c4.979,0,9.239-3.24,9.239-8.459c-0.06-5.04-3.42-8.64-11.219-8.64c-2.22,0-3.96,0.24-5.4,0.42l2.52-18.719h18.659V9.646z"/>
	</g>
</g>
<g id="Layer_2">
</g>
<g id="Layer_3">
</g>
<g id="Layer_4">
</g>
<g id="Layer_5">
</g>
<g id="Layer_6">
</g>
</svg>
