<?xml version="1.0" encoding="utf-8"?>
<!-- Generator: Adobe Illustrator 16.2.1, SVG Export Plug-In . SVG Version: 6.00 Build 0)  -->
<!DOCTYPE svg PUBLIC "-//W3C//DTD SVG 1.1//EN" "http://www.w3.org/Graphics/SVG/1.1/DTD/svg11.dtd">
<svg version="1.1" xmlns="http://www.w3.org/2000/svg" xmlns:xlink="http://www.w3.org/1999/xlink" x="0px" y="0px" width="40px"
	 height="49px" viewBox="0 0 40 49" enable-background="new 0 0 40 49" xml:space="preserve">
<g id="Layer_1">
</g>
<g id="Layer_2">
</g>
<g id="Layer_3">
</g>
<g id="Layer_4">
</g>
<g id="Layer_5">
	<path d="M26.526,23.584c-0.726-0.267-5.092-1.873-5.287-1.929c-0.018-0.005-0.024-0.009-0.034-0.014
		c-4.251-1.219-7.005-3.304-7.005-7.076c0-3.36,2.4-6.24,6.78-6.24c4.74,0,6.6,3.24,6.6,6.359c0,3.472-2.483,5.843-5.748,7.009
		c0.933,0.287,3.506,1.083,4.576,1.465c4.634-2.283,6.212-5.764,6.212-9.014c0-4.86-3.78-9.6-11.34-9.6
		c-6.84,0-12.06,4.2-12.06,10.379c0,3.36,1.86,6.72,6.18,8.76l0.001,0.004c1.469,0.683,4.863,1.891,4.863,1.891
		s0.027,0.009,0.071,0.023c5.163,1.501,8.384,3.781,8.384,8.461c0,4.02-3.06,6.96-7.8,6.96c-4.98,0-7.98-3.48-7.8-7.44
		c0-3.657,2.382-6.614,6.795-7.967c-1.4-0.397-3.522-1.347-4.466-1.783l0.01,0.031c-4.8,2.04-7.74,5.52-7.74,10.44
		c0,5.7,4.92,10.56,13.08,10.56c7.44,0,13.259-4.56,13.259-11.34C34.059,28.894,31.19,25.527,26.526,23.584z"/>
</g>
<g id="Layer_6">
</g>
</svg>
