<?xml version="1.0" encoding="utf-8"?>
<!-- Generator: Adobe Illustrator 16.2.1, SVG Export Plug-In . SVG Version: 6.00 Build 0)  -->
<!DOCTYPE svg PUBLIC "-//W3C//DTD SVG 1.1//EN" "http://www.w3.org/Graphics/SVG/1.1/DTD/svg11.dtd">
<svg version="1.1" xmlns="http://www.w3.org/2000/svg" xmlns:xlink="http://www.w3.org/1999/xlink" x="0px" y="0px" width="40px"
	 height="49px" viewBox="0 0 40 49" enable-background="new 0 0 40 49" xml:space="preserve">
<g id="Layer_1">
</g>
<g id="Layer_2">
</g>
<g id="Layer_3">
</g>
<g id="Layer_4">
</g>
<g id="Layer_5">
</g>
<g id="Layer_6">
	<path d="M20.469,4.546c-7.919,0-13.559,7.2-13.559,20.279c0.12,12.899,5.279,20.04,12.899,20.04c0.065,0,0.125-0.009,0.19-0.01
		v-4.078c-4.736-0.089-7.811-5.83-7.811-15.891c0-10.62,3.36-16.259,7.98-16.259c5.459,0,7.919,6.3,7.919,15.899
		c0,9.94-2.571,16.233-7.949,16.257v4.064c8.43-0.188,13.229-7.475,13.229-20.562C33.369,11.866,28.689,4.546,20.469,4.546z"/>
</g>
</svg>
