<?xml version="1.0" encoding="utf-8"?>
<!-- Generator: Adobe Illustrator 16.2.1, SVG Export Plug-In . SVG Version: 6.00 Build 0)  -->
<!DOCTYPE svg PUBLIC "-//W3C//DTD SVG 1.1//EN" "http://www.w3.org/Graphics/SVG/1.1/DTD/svg11.dtd">
<svg version="1.1" xmlns="http://www.w3.org/2000/svg" xmlns:xlink="http://www.w3.org/1999/xlink" x="0px" y="0px" width="40px"
	 height="49px" viewBox="0 0 40 49" enable-background="new 0 0 40 49" xml:space="preserve">
<g id="Layer_1">
</g>
<g id="Layer_2">
</g>
<g id="Layer_3">
</g>
<g id="Layer_4">
</g>
<g id="Layer_5">
</g>
<g id="Layer_6">
	<path d="M21.529,4.546c-7.979,0-13.319,6.479-13.319,13.859c0,6.66,4.5,11.939,11.52,11.939c3.877,0,6.981-1.544,9.14-4.156
		c0.247-1.324,0.132-3.451,0.039-4.613c-0.079,0.247-0.176,0.472-0.299,0.669c-1.38,2.34-4.14,4.08-7.68,4.08
		c-4.56,0-7.5-3.42-7.5-8.279c0-5.52,3.18-9.48,7.68-9.48c5.52,0,7.979,5.1,7.979,11.76c0,0.128-0.012,0.24-0.02,0.357
		c0.437,1.94,0.157,4.525-0.006,5.462h0.026c-0.72,4.62-2.58,8.04-5.16,10.379c-2.22,2.1-5.1,3.36-8.16,3.78
		c-1.8,0.18-3.12,0.3-4.26,0.18v4.32c1.26,0.06,2.94,0,4.86-0.3c4.2-0.48,8.339-2.28,11.339-5.22c3.84-3.72,6.72-9.719,6.72-18.299
		C34.429,11.026,29.509,4.546,21.529,4.546z"/>
</g>
</svg>
